<svg width="169" height="133" viewBox="0 0 169 133" fill="none" xmlns="http://www.w3.org/2000/svg">
<path d="M6.90625 96.3438L47.9633 55.2867C49.626 53.6239 51.6 52.305 53.7725 51.4051C55.945 50.5052 58.2735 50.042 60.625 50.042C62.9765 50.042 65.305 50.5052 67.4775 51.4051C69.65 52.305 71.624 53.6239 73.2867 55.2867L114.344 96.3438M102.406 84.4062L113.62 73.193C115.282 71.5302 117.256 70.2112 119.429 69.3113C121.601 68.4114 123.93 67.9483 126.281 67.9483C128.633 67.9483 130.961 68.4114 133.134 69.3113C135.306 70.2112 137.28 71.5302 138.943 73.193L162.094 96.3438M18.8438 126.188H150.156C153.322 126.188 156.359 124.93 158.597 122.691C160.836 120.452 162.094 117.416 162.094 114.25V18.75C162.094 15.584 160.836 12.5476 158.597 10.3089C156.359 8.0702 153.322 6.8125 150.156 6.8125H18.8438C15.6777 6.8125 12.6414 8.0702 10.4027 10.3089C8.16395 12.5476 6.90625 15.584 6.90625 18.75V114.25C6.90625 117.416 8.16395 120.452 10.4027 122.691C12.6414 124.93 15.6777 126.188 18.8438 126.188ZM102.406 36.6562H102.47V36.7199H102.406V36.6562ZM105.391 36.6562C105.391 37.4478 105.076 38.2068 104.517 38.7665C103.957 39.3262 103.198 39.6406 102.406 39.6406C101.615 39.6406 100.856 39.3262 100.296 38.7665C99.7363 38.2068 99.4219 37.4478 99.4219 36.6562C99.4219 35.8647 99.7363 35.1057 100.296 34.546C100.856 33.9863 101.615 33.6719 102.406 33.6719C103.198 33.6719 103.957 33.9863 104.517 34.546C105.076 35.1057 105.391 35.8647 105.391 36.6562Z" stroke="#5BAA60" stroke-width="11.9375" stroke-linecap="round" stroke-linejoin="round"/>
</svg>
