<svg width="26" height="26" viewBox="0 0 26 26" fill="none" xmlns="http://www.w3.org/2000/svg">
<path d="M23.8019 21.6238V13.4687C23.8019 12.8115 23.6682 12.1612 23.409 11.5574C23.1498 10.9535 22.7704 10.4087 22.294 9.95613L14.57 2.61979C14.1198 2.19209 13.5225 1.95361 12.9016 1.95361C12.2806 1.95361 11.6833 2.19209 11.2331 2.61979L3.50797 9.95613C3.03154 10.4087 2.65216 10.9535 2.39292 11.5574C2.13368 12.1612 2 12.8115 2 13.4687V21.6238C2 22.2663 2.25522 22.8824 2.70951 23.3367C3.16381 23.791 3.77997 24.0462 4.42244 24.0462H21.3795C22.022 24.0462 22.6381 23.791 23.0924 23.3367C23.5467 22.8824 23.8019 22.2663 23.8019 21.6238Z" stroke="#5BAA60" stroke-width="2.42244" stroke-linecap="round" stroke-linejoin="round"/>
</svg>
