<svg width="94" height="75" viewBox="0 0 94 75" fill="none" xmlns="http://www.w3.org/2000/svg">
<path d="M2.71875 54.5312L26.1492 31.1008C27.0981 30.1519 28.2246 29.3992 29.4644 28.8856C30.7042 28.3721 32.033 28.1077 33.375 28.1077C34.717 28.1077 36.0458 28.3721 37.2856 28.8856C38.5254 29.3992 39.6519 30.1519 40.6008 31.1008L64.0312 54.5312M57.2187 47.7187L63.618 41.3195C64.5669 40.3706 65.6934 39.6179 66.9332 39.1044C68.173 38.5908 69.5018 38.3265 70.8437 38.3265C72.1857 38.3265 73.5145 38.5908 74.7543 39.1044C75.9941 39.6179 77.1206 40.3706 78.0695 41.3195L91.2812 54.5312M9.53125 71.5625H84.4687C86.2755 71.5625 88.0083 70.8448 89.2859 69.5672C90.5635 68.2896 91.2812 66.5568 91.2812 64.75V10.25C91.2812 8.44321 90.5635 6.71043 89.2859 5.43283C88.0083 4.15524 86.2755 3.4375 84.4687 3.4375H9.53125C7.72446 3.4375 5.99168 4.15524 4.71409 5.43283C3.43649 6.71043 2.71875 8.44321 2.71875 10.25V64.75C2.71875 66.5568 3.43649 68.2896 4.71409 69.5672C5.99168 70.8448 7.72446 71.5625 9.53125 71.5625ZM57.2187 20.4687H57.2551V20.5051H57.2187V20.4687ZM58.9219 20.4687C58.9219 20.9204 58.7424 21.3536 58.423 21.673C58.1036 21.9924 57.6704 22.1719 57.2187 22.1719C56.7671 22.1719 56.3339 21.9924 56.0145 21.673C55.6951 21.3536 55.5156 20.9204 55.5156 20.4687C55.5156 20.0171 55.6951 19.5839 56.0145 19.2645C56.3339 18.9451 56.7671 18.7656 57.2187 18.7656C57.6704 18.7656 58.1036 18.9451 58.423 19.2645C58.7424 19.5839 58.9219 20.0171 58.9219 20.4687Z" stroke="#C7C7C7" stroke-width="5" stroke-linecap="round" stroke-linejoin="round"/>
</svg>
