<svg width="25" height="22" viewBox="0 0 25 22" fill="none" xmlns="http://www.w3.org/2000/svg">
<path d="M24.0967 7.23319L22.825 1.94017C22.5585 0.850076 21.6137 0.0991211 20.5115 0.0991211H3.68772C2.59762 0.0991211 1.64076 0.862188 1.3864 1.94017L0.114624 7.23319C-0.176068 8.46864 0.0904 9.7283 0.865579 10.7215C0.962477 10.8547 1.09571 10.9516 1.20472 11.0728V19.4786C1.20472 20.8109 2.29482 21.901 3.62716 21.901H20.5842C21.9165 21.901 23.0066 20.8109 23.0066 19.4786V11.0728C23.1157 10.9637 23.2489 10.8547 23.3458 10.7336C24.121 9.74041 24.3995 8.46864 24.0967 7.23319ZM20.4752 2.50944L21.747 7.80247C21.8681 8.31118 21.7591 8.81989 21.4442 9.21959C21.2746 9.43761 20.9112 9.78886 20.3056 9.78886C19.5668 9.78886 18.9248 9.19537 18.84 8.40807L18.1375 2.52156L20.4752 2.50944ZM13.3169 2.52156H15.6909L16.3449 7.99626C16.4055 8.46864 16.2602 8.94101 15.9452 9.29226C15.6788 9.60718 15.2912 9.78886 14.7946 9.78886C13.9831 9.78886 13.3169 9.07424 13.3169 8.20217V2.52156ZM7.85431 7.99626L8.52047 2.52156H10.8945V8.20217C10.8945 9.07424 10.2283 9.78886 9.33199 9.78886C8.92018 9.78886 8.5447 9.60718 8.25401 9.29226C8.10302 9.11461 7.98973 8.90812 7.92102 8.68532C7.85231 8.46253 7.82961 8.2281 7.85431 7.99626ZM2.46439 7.80247L3.68772 2.52156H6.07382L5.37131 8.40807C5.27441 9.19537 4.64458 9.78886 3.90574 9.78886C3.31224 9.78886 2.93676 9.43761 2.7793 9.21959C2.45227 8.832 2.34326 8.31118 2.46439 7.80247ZM3.62716 19.4786V12.175C3.72405 12.1871 3.80884 12.2113 3.90574 12.2113C4.9595 12.2113 5.91636 11.7753 6.61886 11.0606C7.34559 11.7874 8.31457 12.2113 9.41678 12.2113C10.4705 12.2113 11.4153 11.7753 12.1178 11.0849C12.8324 11.7753 13.8014 12.2113 14.8915 12.2113C15.9089 12.2113 16.8779 11.7874 17.6046 11.0606C18.3071 11.7753 19.264 12.2113 20.3177 12.2113C20.4146 12.2113 20.4994 12.1871 20.5963 12.175V19.4786H3.62716Z" fill="#C7C7C7"/>
</svg>
