<svg width="25" height="20" viewBox="0 0 25 20" fill="none" xmlns="http://www.w3.org/2000/svg">
<path d="M2.42244 20.0001C1.75627 20.0001 1.18578 19.7627 0.710987 19.2879C0.236189 18.8131 -0.000805422 18.243 2.0564e-06 17.5777V3.04304C2.0564e-06 2.37687 0.237401 1.80639 0.712198 1.33159C1.187 0.856795 1.75708 0.6198 2.42244 0.620608H21.8019C22.4681 0.620608 23.0386 0.858006 23.5134 1.3328C23.9882 1.8076 24.2252 2.37768 24.2244 3.04304V17.5777C24.2244 18.2438 23.987 18.8143 23.5122 19.2891C23.0374 19.7639 22.4673 20.0009 21.8019 20.0001H2.42244ZM12.1122 11.5216L2.42244 5.46548V17.5777H21.8019V5.46548L12.1122 11.5216ZM12.1122 9.09913L21.8019 3.04304H2.42244L12.1122 9.09913ZM2.42244 5.46548V3.04304V17.5777V5.46548Z" fill="#C7C7C7"/>
</svg>
