<svg width="27" height="21" viewBox="0 0 27 21" fill="none" xmlns="http://www.w3.org/2000/svg">
<path d="M1 6.38222V17.1467C1 17.8604 1.28353 18.5449 1.78821 19.0496C2.29289 19.5542 2.97738 19.8378 3.69111 19.8378H22.5289C23.2426 19.8378 23.9271 19.5542 24.4318 19.0496C24.9365 18.5449 25.22 17.8604 25.22 17.1467V6.38222M1 6.38222V3.69111C1 2.97738 1.28353 2.29289 1.78821 1.78821C2.29289 1.28353 2.97738 1 3.69111 1H22.5289C23.2426 1 23.9271 1.28353 24.4318 1.78821C24.9365 2.29289 25.22 2.97738 25.22 3.69111V6.38222M1 6.38222H25.22M6.38222 11.7644H13.11" stroke="#C7C7C7" stroke-width="2" stroke-linecap="round" stroke-linejoin="round"/>
</svg>
