<svg width="26" height="25" viewBox="0 0 26 25" fill="none" xmlns="http://www.w3.org/2000/svg">
<path opacity="0.16" d="M16.5322 16.5215H9.2649C8.22167 16.5216 7.20631 16.8583 6.36969 17.4815C5.53307 18.1047 4.91983 18.9812 4.62109 19.9807C5.64338 21.1763 6.91282 22.1358 8.34186 22.7933C9.7709 23.4507 11.3255 23.7904 12.8986 23.7888C14.4716 23.7904 16.0262 23.4507 17.4552 22.7933C18.8843 22.1358 20.1537 21.1763 21.176 19.9807C20.8773 18.9812 20.264 18.1047 19.4274 17.4815C18.5908 16.8583 17.5754 16.5216 16.5322 16.5215Z" fill="#C7C7C7"/>
<path d="M23.8019 12.8878C23.8055 15.052 23.1618 17.1678 21.9536 18.9633C20.9572 20.4494 19.61 21.6671 18.0311 22.5087C16.4522 23.3504 14.6902 23.79 12.901 23.7888C11.1117 23.79 9.34977 23.3504 7.77085 22.5087C6.19194 21.6671 4.84472 20.4494 3.84832 18.9633C2.89961 17.5491 2.29542 15.9323 2.08419 14.2425C1.87295 12.5527 2.06056 10.8369 2.63195 9.2327C3.20334 7.62848 4.14264 6.18044 5.37453 5.00467C6.60643 3.82889 8.09666 2.95809 9.72576 2.46206C11.3549 1.96603 13.0775 1.85858 14.7556 2.14831C16.4337 2.43805 18.0206 3.11691 19.3891 4.13049C20.7576 5.14406 21.8695 6.46415 22.6358 7.98493C23.4022 9.50571 23.8015 11.1849 23.8019 12.8878Z" stroke="#C7C7C7" stroke-width="2.42244"/>
<path d="M14.1075 9.25426C14.1075 9.57549 13.9799 9.88357 13.7528 10.1107C13.5256 10.3379 13.2175 10.4655 12.8963 10.4655V12.8879C13.86 12.8879 14.7842 12.5051 15.4657 11.8236C16.1471 11.1422 16.5299 10.218 16.5299 9.25426H14.1075ZM12.8963 10.4655C12.5751 10.4655 12.267 10.3379 12.0398 10.1107C11.8127 9.88357 11.6851 9.57549 11.6851 9.25426H9.26264C9.26264 10.218 9.64547 11.1422 10.3269 11.8236C11.0084 12.5051 11.9326 12.8879 12.8963 12.8879V10.4655ZM11.6851 9.25426C11.6851 8.93302 11.8127 8.62495 12.0398 8.3978C12.267 8.17065 12.5751 8.04304 12.8963 8.04304V5.62061C11.9326 5.62061 11.0084 6.00344 10.3269 6.68488C9.64547 7.36632 9.26264 8.29055 9.26264 9.25426H11.6851ZM12.8963 8.04304C13.2175 8.04304 13.5256 8.17065 13.7528 8.3978C13.9799 8.62495 14.1075 8.93302 14.1075 9.25426H16.5299C16.5299 8.29055 16.1471 7.36632 15.4657 6.68488C14.7842 6.00344 13.86 5.62061 12.8963 5.62061V8.04304ZM4.61883 19.9808L3.45727 19.6356L3.26953 20.2691L3.69951 20.7693L4.61883 19.9808ZM21.1738 19.9808L22.0943 20.7693L22.523 20.2691L22.3353 19.6356L21.1738 19.9808ZM9.26264 17.7328H16.5299V15.3103H9.26264V17.7328ZM9.26264 15.3103C7.95832 15.3103 6.68882 15.7312 5.64288 16.5105C4.59694 17.2898 3.83042 18.3858 3.45727 19.6356L5.77917 20.326C6.00356 19.5765 6.46369 18.9194 7.09124 18.4522C7.71879 17.9851 8.48029 17.7328 9.26264 17.7328V15.3103ZM12.8963 22.5777C11.4979 22.5792 10.1159 22.2774 8.84551 21.6929C7.57514 21.1084 6.44673 20.2553 5.53814 19.1923L3.69951 20.7693C4.8355 22.0974 6.24596 23.1634 7.83368 23.8938C9.4214 24.6242 11.1486 25.0016 12.8963 25.0001V22.5777ZM16.5299 17.7328C18.1736 17.7328 19.5653 18.8253 20.0134 20.3272L22.3353 19.6356C21.9622 18.386 21.1947 17.2901 20.149 16.5109C19.1033 15.7316 17.8341 15.3106 16.5299 15.3103V17.7328ZM20.2544 19.1923C19.3459 20.2553 18.2174 21.1084 16.9471 21.6929C15.6767 22.2774 14.2947 22.5792 12.8963 22.5777V25.0001C14.644 25.0016 16.3712 24.6242 17.9589 23.8938C19.5466 23.1634 20.9583 22.0974 22.0943 20.7693L20.2544 19.1923Z" fill="#C7C7C7"/>
</svg>
