<svg width="41" height="41" viewBox="0 0 41 41" fill="none" xmlns="http://www.w3.org/2000/svg">
<path d="M40.6011 16.485H38.9498V16.3999H20.4999V24.5999H32.0854C30.3952 29.3733 25.8535 32.7999 20.4999 32.7999C13.7073 32.7999 8.19996 27.2926 8.19996 20.4999C8.19996 13.7073 13.7073 8.19996 20.4999 8.19996C23.6354 8.19996 26.4879 9.38281 28.6599 11.3149L34.4583 5.51653C30.797 2.10432 25.8996 0 20.4999 0C9.17883 0 0 9.17883 0 20.4999C0 31.821 9.17883 40.9998 20.4999 40.9998C31.821 40.9998 40.9998 31.821 40.9998 20.4999C40.9998 19.1254 40.8584 17.7837 40.6011 16.485Z" fill="#FFC107"/>
<path d="M2.36328 10.9582L9.09852 15.8977C10.921 11.3857 15.3346 8.19997 20.4995 8.19997C23.635 8.19997 26.4876 9.38281 28.6595 11.3149L34.4579 5.51653C30.7966 2.10432 25.8992 0 20.4995 0C12.6255 0 5.79701 4.44541 2.36328 10.9582Z" fill="#FF3D00"/>
<path d="M20.504 41.0003C25.7991 41.0003 30.6104 38.9739 34.2481 35.6786L27.9034 30.3096C25.7761 31.9275 23.1766 32.8025 20.504 32.8004C15.1719 32.8004 10.6445 29.4005 8.93893 24.6558L2.25391 29.8064C5.64664 36.4453 12.5367 41.0003 20.504 41.0003Z" fill="#4CAF50"/>
<path d="M40.6012 16.485H38.9499V16.4H20.5V24.5999H32.0855C31.277 26.8717 29.8206 28.8569 27.8964 30.3102L27.8994 30.3081L34.2442 35.6771C33.7952 36.085 40.9999 30.7499 40.9999 20.4999C40.9999 19.1254 40.8585 17.7837 40.6012 16.485Z" fill="#1976D2"/>
</svg>
