<svg width="53" height="43" viewBox="0 0 53 43" fill="none" xmlns="http://www.w3.org/2000/svg">
<path d="M51.8192 1.02298C49.6311 2.56639 47.2084 3.74686 44.6445 4.51892C43.2684 2.93663 41.4395 1.81514 39.4052 1.30614C37.371 0.797135 35.2295 0.925172 33.2703 1.67293C31.3112 2.42069 29.629 3.7521 28.4512 5.48708C27.2734 7.22206 26.6569 9.2769 26.685 11.3737V13.6586C22.6695 13.7627 18.6906 12.8722 15.1027 11.0662C11.5148 9.26032 8.42914 6.59508 6.12064 3.3079C6.12064 3.3079 -3.01907 23.8722 17.5453 33.012C12.8395 36.2062 7.23375 37.8079 1.55078 37.5818C22.1151 49.0064 47.2493 37.5818 47.2493 11.3051C47.2472 10.6687 47.186 10.0338 47.0665 9.40866C49.3985 7.10886 51.0442 4.20522 51.8192 1.02298Z" fill="#1DA1F2" stroke="#1DA1F2" stroke-width="2" stroke-linecap="round" stroke-linejoin="round"/>
</svg>
