<svg width="43" height="43" viewBox="0 0 43 43" fill="none" xmlns="http://www.w3.org/2000/svg">
<path d="M21.5 0C17.2477 0 13.0909 1.26095 9.55525 3.6234C6.01959 5.98585 3.26388 9.34369 1.6366 13.2723C0.00931561 17.2009 -0.416456 21.5238 0.413126 25.6944C1.24271 29.865 3.29038 33.696 6.29721 36.7028C9.30404 39.7096 13.135 41.7573 17.3056 42.5869C21.4762 43.4165 25.7991 42.9907 29.7277 41.3634C33.6563 39.7361 37.0141 36.9804 39.3766 33.4448C41.739 29.9091 43 25.7523 43 21.5C42.994 15.7997 40.7269 10.3346 36.6961 6.30385C32.6654 2.27312 27.2003 0.00601962 21.5 0ZM21.5 39.6923C17.9019 39.6923 14.3846 38.6253 11.3929 36.6263C8.40119 34.6273 6.06944 31.7861 4.69251 28.4619C3.31558 25.1377 2.95531 21.4798 3.65726 17.9509C4.35922 14.4219 6.09186 11.1803 8.6361 8.63609C11.1803 6.09186 14.4219 4.35921 17.9509 3.65725C21.4798 2.9553 25.1377 3.31557 28.4619 4.6925C31.7861 6.06943 34.6274 8.40118 36.6264 11.3929C38.6253 14.3846 39.6923 17.9019 39.6923 21.5C39.6868 26.3232 37.7684 30.9473 34.3579 34.3579C30.9473 37.7684 26.3232 39.6868 21.5 39.6923ZM11.5769 17.3654C11.5769 16.8747 11.7224 16.3951 11.995 15.9871C12.2676 15.5792 12.655 15.2612 13.1083 15.0734C13.5617 14.8857 14.0605 14.8366 14.5417 14.9323C15.0229 15.028 15.4649 15.2643 15.8119 15.6112C16.1588 15.9582 16.3951 16.4002 16.4908 16.8814C16.5865 17.3626 16.5374 17.8614 16.3496 18.3147C16.1619 18.768 15.8439 19.1555 15.4359 19.4281C15.028 19.7007 14.5483 19.8461 14.0577 19.8461C13.3998 19.8461 12.7688 19.5848 12.3035 19.1195C11.8383 18.6543 11.5769 18.0233 11.5769 17.3654ZM31.4231 17.3654C31.4231 17.856 31.2776 18.3357 31.005 18.7436C30.7324 19.1516 30.345 19.4695 29.8917 19.6573C29.4384 19.8451 28.9396 19.8942 28.4583 19.7985C27.9771 19.7028 27.5351 19.4665 27.1881 19.1195C26.8412 18.7726 26.6049 18.3306 26.5092 17.8494C26.4135 17.3681 26.4626 16.8693 26.6504 16.416C26.8381 15.9627 27.1561 15.5753 27.5641 15.3027C27.972 15.0301 28.4517 14.8846 28.9423 14.8846C29.6003 14.8846 30.2312 15.146 30.6965 15.6112C31.1617 16.0764 31.4231 16.7074 31.4231 17.3654ZM31.2019 27.2885C29.0746 30.9662 25.5375 33.0769 21.5 33.0769C17.4626 33.0769 13.9275 30.9683 11.8002 27.2885C11.6805 27.1002 11.6002 26.8897 11.564 26.6696C11.5278 26.4495 11.5365 26.2244 11.5895 26.0077C11.6426 25.7911 11.739 25.5874 11.8728 25.409C12.0066 25.2305 12.1751 25.081 12.3682 24.9694C12.5614 24.8577 12.7751 24.7863 12.9965 24.7594C13.2179 24.7325 13.4425 24.7507 13.6567 24.8129C13.8709 24.875 14.0704 24.9798 14.243 25.1211C14.4157 25.2623 14.558 25.437 14.6614 25.6346C16.2056 28.3035 18.6327 29.7692 21.5 29.7692C24.3674 29.7692 26.7944 28.3014 28.3366 25.6346C28.5559 25.2546 28.9172 24.9774 29.3409 24.8638C29.7647 24.7502 30.2162 24.8096 30.5962 25.0289C30.9761 25.2482 31.2534 25.6095 31.367 26.0332C31.4806 26.457 31.4212 26.9085 31.2019 27.2885Z" fill="#5BAA60"/>
</svg>
